<svg xmlns="http://www.w3.org/2000/svg" viewBox="0 0 960 640" fill="none"><defs><linearGradient id="hero-gradient" x1="0" y1="0" x2="1" y2="1"><stop offset="0%" stop-color="#f7f2ec"/><stop offset="100%" stop-color="rgba(255, 248, 243, 0.9)"/></linearGradient></defs><rect width="960" height="640" fill="url(#hero-gradient)"/><circle cx="860" cy="70" r="180" fill="#ff6b6b" opacity="0.16"/><circle cx="120" cy="560" r="160" fill="#1a1330" opacity="0.14"/><g transform="translate(80 160) rotate(-6)"><rect width="220" height="280" rx="26" fill="rgba(255,255,255,0.82)" stroke="rgba(29, 24, 32, 0.12)"/><rect x="20" y="22" width="180" height="150" rx="18" fill="#ff6b6b" opacity="0.22"/><rect x="20" y="190" width="130" height="12" rx="6" fill="#1a1330" opacity="0.86"/><rect x="20" y="214" width="168" height="10" rx="5" fill="#1d1820" opacity="0.18"/><text x="20" y="252" font-size="20" fill="#1d1820" font-family="Arial, sans-serif">hook card</text></g><g transform="translate(290 182) rotate(0)"><rect width="220" height="280" rx="26" fill="rgba(255,255,255,0.82)" stroke="rgba(29, 24, 32, 0.12)"/><rect x="20" y="22" width="180" height="150" rx="18" fill="#ff6b6b" opacity="0.22"/><rect x="20" y="190" width="130" height="12" rx="6" fill="#1a1330" opacity="0.86"/><rect x="20" y="214" width="168" height="10" rx="5" fill="#1d1820" opacity="0.18"/><text x="20" y="252" font-size="20" fill="#1d1820" font-family="Arial, sans-serif">shot list</text></g><g transform="translate(500 160) rotate(6)"><rect width="220" height="280" rx="26" fill="rgba(255,255,255,0.82)" stroke="rgba(29, 24, 32, 0.12)"/><rect x="20" y="22" width="180" height="150" rx="18" fill="#ff6b6b" opacity="0.22"/><rect x="20" y="190" width="130" height="12" rx="6" fill="#1a1330" opacity="0.86"/><rect x="20" y="214" width="168" height="10" rx="5" fill="#1d1820" opacity="0.18"/><text x="20" y="252" font-size="20" fill="#1d1820" font-family="Arial, sans-serif">repurpose lane</text></g><text x="96" y="66" font-size="18" letter-spacing="3" fill="#1a1330" font-family="Arial, sans-serif">Creator Batch Studio</text><text x="96" y="604" font-size="20" fill="#1d1820" opacity="0.72" font-family="Arial, sans-serif">Build a premium web service that turns a creator's rough YouTube-based content idea </text></svg>